<svg xmlns="http://www.w3.org/2000/svg" shape-rendering="geometricPrecision" viewBox="0 -0.5 18 18"><path stroke="#373737" d="M0 0h17M0 1h1M0 2h1M0 3h1M0 4h1M0 5h1M0 6h1M0 7h1M0 8h1M0 9h1m-1 1h1m-1 1h1m-1 1h1m-1 1h1m-1 1h1m-1 1h1m-1 1h1"/><path stroke="#8b8b8b" d="M17 0h1M1 1h16M1 2h16M1 3h16M1 4h16M1 5h16M1 6h16M1 7h16M1 8h16M1 9h16M1 10h16M1 11h16M1 12h16M1 13h16M1 14h16M1 15h16M1 16h16M0 17h1"/><path stroke="#fff" d="M17 1h1m-1 1h1m-1 1h1m-1 1h1m-1 1h1m-1 1h1m-1 1h1m-1 1h1m-1 1h1m-1 1h1m-1 1h1m-1 1h1m-1 1h1m-1 1h1m-1 1h1m-1 1h1M1 17h17"/></svg>