<svg xmlns="http://www.w3.org/2000/svg" viewBox="0 0 1000 1000"><defs><linearGradient id="a" x2="1000" y1="500" y2="500" gradientUnits="userSpaceOnUse"><stop offset="0" stop-color="#00a495"/><stop offset="1" stop-color="#13ad65"/></linearGradient></defs><path fill="url(#a)" d="M0 500a500 500 0 1 0 1000 0A500 500 0 1 0 0 500"/><path fill="#fff" d="M505.7 207.11a53.558 53.558 0 0 0-21.479 5.34c-13.191 6.347-23.945 17.957-28.538 31.931-2.786 8.286-3.581 17.231-2.228 25.871 1.797 11.898 7.504 23.255 16.341 31.474 30.054 30.308 60.22 60.5 90.323 90.758l52.256 52.463c-120.25.02-240.51.005-360.76.126-21.52 1.08-41.465 16.271-48.525 36.58-3.226 9.264-3.974 19.388-1.998 29.006 2.393 12.073 8.822 23.411 18.366 31.254 11.002 9.369 25.756 14.043 40.144 13.07l352.64.023c-48.817 48.842-97.7 97.618-146.38 146.6-14.308 16.138-17.444 41.015-7.935 60.317 4.392 8.929 11.207 16.658 19.589 22.035 10.234 6.663 22.733 9.97 34.92 8.65 14.216-1.293 27.682-8.465 37.049-19.181 79.059-79.063 158.19-158.06 237.1-237.27 14.187-15.912 17.474-40.471 8.174-59.621-3.522-7.356-8.94-13.588-14.739-19.24-3.922-3.85-7.835-7.709-11.676-11.64-74.667-74.863-149.31-149.75-224.04-224.55-10.34-9.325-24.354-14.298-38.24-13.99-.12-.004-.241-.02-.362-.008z"/></svg>