<svg xmlns="http://www.w3.org/2000/svg" shape-rendering="geometricPrecision" viewBox="0 0 216 124"><path fill="#C6C6C6" d="M0 0h216v124H0z"/><path fill="#DBDBDB" d="M0 0h216l-2 2H2v120l-2 2z"/><path fill="#5B5B5B" d="M216 0v124H0l2-2h212V2z"/><path fill="#8B8B8B" d="M8 8h108v108H8zm195 1h1v1h1v1h1v1h1v1h-1v1h-1v1h-1v1h-1v-2h-2v1h-1v1h-1v1h-1v1h-1v1h-1v1h-1v1h-1v1h-3v-3h2v-1h1v-1h1v-1h1v-3h-1v-1h-1v-1h-3v3h3v1h3v-1h1v-1h1v-1h1v-1h3zm0 8h1v1h1v1h1v1h1v1h-1v1h-1v1h-1v1h-1v-2h-2v-1h-1v-1h-1v-2h2v1h2zm-47 19h52v52h-52zm-28 14h2v8h12v-8h2v2h2v2h2v2h2v2h2v2h2v2h-2v2h-2v2h-2v2h-2v2h-2v2h-2v-8h-12v8h-2v-2h-2v-2h-2v-2h-2v-2h-2v-2h-2v-2h2v-2h2v-2h2v-2h2v-2h2z"/><g id="b"><g id="a"><path fill="#373737" d="M8 8h34v2H10v32H8z"/><path fill="#fff" d="M42 10h2v34H10v-2h32z"/></g><use x="36" href="#a"/><use x="72" href="#a"/></g><use y="36" href="#b"/><use y="72" href="#b"/><path fill="#373737" d="M156 36h50v2h-48v48h-2z"/><path fill="#fff" d="M158 86h48V38h2v50h-50z"/></svg>