<svg xmlns="http://www.w3.org/2000/svg" shape-rendering="geometricPrecision" viewBox="0 0 180 124"><defs><pattern id="a" width="36" height="36" x="8" y="8" patternUnits="userSpaceOnUse"><path fill="#373737" d="M0 0h34v2H2v32H0z"/><path fill="#8B8B8B" d="M34 0h2v2H2v34H0v-2h34z"/><path fill="#fff" d="M34 2h2v34H2v-2h32z"/></pattern></defs><path fill="#DBDBDB" d="M0 0h180l-2 2H2v120l-2 2z"/><path fill="#5B5B5B" d="M180 0v124H0l2-2h176V2z"/><path fill="url(#a)" d="M8 8h36v36H8zm0 72h36v36H8z"/><path fill="#373737" d="M120 36h50v2h-48v48h-2z" class="output"/><path fill="#8B8B8B" d="M170 36h2v2h-50v50h-2v-2h50z" class="output"/><path fill="#fff" d="M170 38h2v50h-50v-2h48z" class="output"/><path fill="#fff" d="M86 44h2v2h2v2h2v2h2v2h2v2h2v2h2v2h2v2h-2v2h-2v2h-2v2h-2v2h-2v2h-2v2h-2v2h-2V62H58v-6h28z" class="arrow"/><path fill="#686868" d="M100 60h2v2h-4v4h-4v4h-4v4h-4v2h2v-4h4v-4h4v-4h4zm-42 2h28v2H58z" class="arrow"/><path fill="#D84C45" d="M12 48h2v4h2v-2h-4zm20 0h2v2h-4v2h2zm-10 2h2v2h-2zm-10 4h2v2h-2zm12 0h2v2h-2zm8 0h2v2h-2zm-10 4h2v2h-2zm-12 2h2v2h-2zm24 0h2v2h-2zm-20 2h2v2h-2zm6 0h2v2h-2zm10 0h2v2h-2zm-6 2h2v2h-2zm-14 4h2v2h-2zm24 0h2v2h-2z" class="fire"/><path fill="#FFB600" d="M12 50h2v4h2v-2h-4zm20 0h2v2h-4v2h2zm-10 2h2v2h-2zm-10 4h2v2h-2zm12 0h2v6h-2zm8 0h2v2h-2zm-18 4h2v2h-2zm16 0h2v2h-2zm-20 2h2v2h-2zm24 0h2v2h-2zm-14 2h2v4h-2zm-6 2h2v2h-2zm16 0h2v2h-2zm-20 6h2v2h-2zm4 0h2v2h-2zm6 0h2v2h-2zm10 0h2v2h-2zm4 0h2v2h-2z" class="fire"/><path fill="#8b8b8b" d="M34 50h2v4h-2zm-18 4h2v10h-4v2h2zm10 4h2v10h-2v2h-2v-4h2zm8 0h2v2h-2zm2 4h2v8h-4v2h2zm-20 6h2v8h-6v-2h4zm10 4h2v4h-6v-2h4zm6 2h6v2h-6z" class="fire"/><path fill="#FFFF1F" d="M14 54h2v4h-4v4h2zm8 0h2v2h-2zm8 0h2v10h4v4h-2V58h-4zm-8 6h2v6h-2v-2h4v-2h-4zm-12 4h2v2h-2zm4 4h2v2h-2zm6 0h2v4h-2zm10 0h2v2h-2zm-6 2h2v2h-2z" class="fire"/><path fill="#fff" d="M14 58h2v2h-2zm16 0h2v2h-2zm-18 4h2v8h2v2h-2v2h-2v-6h-2v-2h2zm10 0h2v2h-2zm10 2h2v10h-2v-2h-2v-2h2zm-10 2h2v6h2v2h-4z" class="fire"/></svg>