<svg xmlns="http://www.w3.org/2000/svg" viewBox="0 0 1000 1000"><defs><linearGradient id="a" x2="1000" y1="500" y2="500" gradientUnits="userSpaceOnUse"><stop offset="0" stop-color="#00a495"/><stop offset="1" stop-color="#13ad65"/></linearGradient></defs><path fill="url(#a)" d="M0 500a500 500 0 1 0 1000 0A500 500 0 1 0 0 500"/><path fill="#fff" d="M207.11 494.3a53.558 53.558 0 0 0 5.34 21.479c6.347 13.191 17.957 23.945 31.931 28.538 8.286 2.786 17.231 3.581 25.871 2.228 11.898-1.797 23.255-7.504 31.474-16.341 30.308-30.054 60.5-60.22 90.758-90.323l52.463-52.256c.02 120.25.005 240.51.126 360.76 1.08 21.52 16.271 41.465 36.58 48.525 9.264 3.226 19.388 3.974 29.006 1.998 12.073-2.393 23.411-8.822 31.254-18.366 9.369-11.002 14.043-25.756 13.07-40.144l.023-352.64c48.842 48.817 97.618 97.7 146.6 146.38 16.138 14.308 41.015 17.444 60.317 7.935 8.929-4.392 16.658-11.207 22.035-19.589 6.663-10.234 9.97-22.733 8.65-34.92-1.293-14.216-8.465-27.682-19.181-37.049-79.063-79.059-158.06-158.19-237.27-237.1-15.912-14.187-40.471-17.474-59.621-8.174-7.356 3.522-13.588 8.94-19.24 14.739-3.85 3.922-7.709 7.835-11.64 11.676-74.863 74.667-149.75 149.31-224.55 224.04-9.325 10.34-14.298 24.354-13.99 38.24-.004.12-.02.241-.008.362z"/></svg>