<svg xmlns="http://www.w3.org/2000/svg" xml:space="preserve" width="66" height="66" version="1.0" viewBox="0 0 66 66"><path d="M63.058 33C63.058 49.601 49.6 63.06 33 63.06S2.941 49.6 2.942 33C2.942 16.399 16.4 2.94 33 2.94S63.059 16.4 63.058 33z" style="fill:#fff;fill-opacity:1;fill-rule:evenodd;stroke:#000;stroke-width:5.98238325;stroke-linejoin:round;stroke-miterlimit:4;stroke-dasharray:none;stroke-opacity:1"/><path d="m32.546 27.334-4.417 2.298c-.472-.981-1.05-1.669-1.737-2.061-.688-.393-1.325-.59-1.915-.59-2.944 0-4.417 1.944-4.417 5.83 0 1.767.374 3.18 1.119 4.24s1.845 1.59 3.298 1.59c1.924 0 3.278-.942 4.065-2.827l4.062 2.061c-.864 1.61-2.06 2.876-3.592 3.799-1.53.923-3.22 1.384-5.064 1.384-2.944 0-5.32-.903-7.126-2.71-1.806-1.804-2.709-4.318-2.709-7.537 0-3.141.913-5.633 2.739-7.479 1.826-1.845 4.131-2.768 6.92-2.768 4.083 0 7.008 1.59 8.774 4.77zm19.022 0-4.357 2.298c-.472-.981-1.05-1.669-1.738-2.061-.687-.393-1.346-.59-1.974-.59-2.944 0-4.417 1.944-4.417 5.83 0 1.767.374 3.18 1.119 4.24s1.845 1.59 3.298 1.59c1.924 0 3.278-.942 4.065-2.827l4.121 2.061c-.902 1.61-2.12 2.876-3.65 3.799a9.516 9.516 0 0 1-5.006 1.384c-2.984 0-5.369-.903-7.155-2.71-1.787-1.804-2.679-4.318-2.679-7.537 0-3.141.912-5.633 2.738-7.479 1.825-1.845 4.131-2.768 6.92-2.768 4.082 0 6.987 1.59 8.715 4.77z"/></svg>