<svg xmlns="http://www.w3.org/2000/svg" xml:space="preserve" id="Logo_Outline_Background" x="0px" y="0px" style="enable-background:new 0 0 1295.5 221.8" version="1.1" viewBox="0 0 1295.5 221.8"><style>.MCVB-0{fill:#3d3938}.MCVB-2{fill:#998f8b}.MCVB-3{fill:#262423}.MCVB-4{fill:#6b6562}.MCVB-5{fill:#171615}</style><path d="m1270.5 80.3 23.3-38.7L1280.9 0H390.5l-4.2 30.4L378.1 0H170.6l-7.1 28.6h-17.3l-4.1 15.8L119.2 0H51.5L0 165.4l41.1 56.3h67.5l8.3-31.2h27.3l18.3 31.2H371l5-36.2 11.5 36.2H1084l28.2-58.4h25.5l23.7-46.4 25.3 104.8h70.1l38.8-56.4-25.1-85zm-601.7 39.3.1-19.8h59.9l.6 19.8h-60.6z"/><path d="M270.4 163.3h-55.2l23.6 47h52.3zM288.8 163.3l19.8 47h52.3l-16.8-47zM454.5 163.3l11.1 47h122.1l-4.3-47zM730.7 163.3l-3.4 47H605.2l-3.4-47zM749.1 163.3h55.2l-7.2 47h-52.4zM822.7 163.3l-8.2 47h52.3l11.1-47zM896.3 163.3l-12 47h52.3l15-47zM970 163.3l-15.9 47h52.3l18.8-47zM1043.6 163.3l-19.8 47h52.4l22.6-47zM1227.7 163.3l-29.4 47h52.3l32.3-47zM380.9 163.3l14.9 47h52.4l-12.1-47zM141.6 163.3h55.2l24.6 47H169zM46.9 210.3l-34.2-47h55.2l31.3 47z" class="MCVB-0"/><linearGradient id="SVGIDMCVB_1_" x1="647.835" x2="647.835" y1="213.54" y2="61.13" gradientTransform="matrix(1 0 0 -1 0 223.76)" gradientUnits="userSpaceOnUse"><stop offset="0" style="stop-color:#d0c5c0"/><stop offset="0.99" style="stop-color:#aba09c"/></linearGradient><path d="M157.5 99.8h-17.9l-8.1 31.2H95.3l8.6-31.2H86.1L68 163.3H12.8L60.1 11.5h51.2l-8.1 28.6h17.3l-8.1 29.4h35.1l7.6-29.4h17.3l7.1-28.6h51.2l-34 151.8h-55.2l16-63.5zm90.4-88.3h51.2l-28.7 151.8h-55.2l32.7-151.8zm221.9 0h119.5l-1.1 28.6h-69.3l-2.2 29.4H587l-1.2 30.3h-71.4l-2.3 31.2h72.5l-1.3 32.3H454.5l15.3-151.8zm136.7 0H726l.9 28.6h-69.3l-.4 91h72.5l1 32.3H601.8l4.7-151.9zM818 99.8h-17.9l4.2 63.5h-55.2l-6-151.8h119.5l5.8 58h-17.6l1.4 15H870l8 78.8h-55.2L818 99.8zm-21.8-59.7 1.9 29.4h17.6l-2.2-29.4h-17.3zm220.1-28.6h119.5l6.9 28.6h-69.3l6.1 29.4h70.3l7.3 30.3h-71.4l13.1 63.5h-55.2l-27.3-151.8zm178.5 28.6h-34.7l-7.2-28.6h119.5l8.9 28.6h-34.7l36.2 123.3h-55.2l-32.8-123.3zm-807.4 75.2h-18l4.5-30.8h-17.7l-12.1 78.8h-55.2l27.3-151.8h51.2L363 40.1h17.3L376 69.5h17.6l7.9-58h51.2l-16.6 151.8h-55.2l6.5-48zM999.2 11.5H879.7l16.7 151.8h55.2l-6.5-48h18l7 48h55.2L999.2 11.5zM958.9 67h8.8l4.2 27.7H960l-1.5-10.1h-17.7l1.4 10.1h-11.9L926.8 67h8.8l-1-7.4h-20.4l-2.4-19.5h23.1l2.3 17.1h17.5l-2.5-17.1h23.1l3.1 19.5H958l.9 7.4z" style="fill:url(#SVGIDMCVB_1_)"/><path d="m246.3 131.1-6.5 32.2h-6.2l6.7-32.2zM931.1 147l2.1 16.3H927l-2-16.3z" class="MCVB-2"/><path d="m239.8 163.3 6.9 14.6h-6l-7.1-14.6z" class="MCVB-3"/><path d="m316.1 147-2.7 16.3h-6.2L310 147z" class="MCVB-2"/><path d="m417.7 163.3 4.1 14.6h-6.1l-4.1-14.6zM479.1 163.3l6 28.8h-6l-6.2-28.8zM87.1 192.1l-3.1-4.7H66.1l3.2 4.7zM1051.4 187.4h-17.9l-2 4.7h17.8zM836.4 187.4h-17.9l-.8 4.7h17.8zM542.5 177.9h6l-1.9-14.6h-6.2zM1209.7 192.1l2.9-4.7h17.9l-3 4.7zM211.9 192.1l-2.5-4.7h-17.9l2.5 4.7z" class="MCVB-3"/><path d="m906 89.6-.6-5.1h-17.7l.5 5.1zM189.7 64.5l6.9-29.3h-23l-1.2 4.9h17.3l-5.9 24.4h-35.1l-1.2 5h70.3l1.1-5zM1244 11.5h-5.7l8.4 28.6h5.8zM1114.7 69.5h-5.9l6.7 30.3h5.9zM802.2 131.1l-.4-5.3h-24.1l2 37.5h6.2l-1.9-32.2zM52.6 35.2h51.9l-1.4 4.9h-52zM296.5 120.5l1-5.2h53.9l-.8 5.2zM1216.2 120.5l-1.4-5.2h54l1.5 5.2zM966.1 136.4l-.8-5.3h54.4l.9 5.3zM423.4 115.3h-36l-.7 5.2h30.1l-5.2 42.8h6.1zM780.5 69.5l-.3-5h-11.7l-2.7-53h-5.7l1.9 38.3h-17.4l.2 4.9h17.4l.7 14.8z" class="MCVB-2"/><path d="m780.5 69.5-.3-5h-11.7l-2.7-53h-5.7l1.9 38.3h-17.4l.2 4.9h17.4l.7 14.8zM77.1 131.1l1.5-5.3H48.5l7.8-26H32.5l-1.6 5.2h17.9L36 147h36.6l1.5-5.3H43.7l3.2-10.6zM1108.1 40.1l-4.3-19.2h-28.6l-2-9.4h-5.7l2.9 14.2h28.7l3.2 14.4zM466 49.8h17.4l-.5 4.9h-17.4zM458.3 125.8l-.5 5.3h18.1l-3 32.2h6.2l3.3-37.5zM363.7 35.2h-17.2l-.8 4.9H363zM450.2 35.2h-51.9l-.7 4.9h52z" class="MCVB-2"/><path d="M933.2 163.3H927l-8.4 28.8h6z" class="MCVB-3"/><path d="m819.9 125.8.4 5.3h18.1l-.4-5.3zM605.1 54.7l-.1 4.9h17.5l-1.3 55.7h-17.9l-.2 5.2h24.1l1.1-60.9h29.2v-4.9zM1062 131.1l-6-31.3h-23.8l.9 5.2h17.9l4.9 26.1zM663.2 163.3H657l.1-13.6h6.1z" class="MCVB-2"/><path d="M663.2 177.9h-6l-.2-14.6h6.2zM783.9 177.9h-6l1.8-14.6h6.2z" class="MCVB-3"/><path d="m271.5 35.2-3.9 19.5h5.9l2.9-14.6h17.3l.9-4.9zM560.5 131.1l-.6 10.6h-18.2l-1.3 21.6h6.2l.9-16.3h18.3l.7-15.9z" class="MCVB-2"/><path d="m728.8 189.8.1-2.4H711l-.1 2.4zM313.4 163.3l11.3 28.8h-5.9l-11.6-28.8z" class="MCVB-3"/><path d="m56.3 99.8-.8 2.6H31.7l.8-2.6zM48.5 125.8l2.2 2.6h27.2l.7-2.6zM43.7 141.7l2.3 2.7h27.3l.8-2.7zM52.6 35.2h51.9l-.7 2.5H51.9zM173.6 35.2l-.6 2.5h23.1l.5-2.5zM189.7 40.1l2.3 2.4-5.9 24.5h-38l.6-2.5h35.1zM189.7 64.5 192 67h26.4l.5-2.5zM48.8 105l2.2 2.5L39.1 147H36zM267.6 54.7h3l3.4-17h20.1l.5-2.5h-23.1zM246.3 131.1l-.5 2.6h-3l-6.1 29.6h-3.1l6.7-32.2zM345.7 40.1h2.8l.4-2.4h14.5l.3-2.5h-17.2zM398.3 35.2h51.9l-.3 2.5H398zM297.5 115.3h53.9l-.4 2.6h-54zM316.1 147H310l-2.8 16.3h3.1l2.3-13.6h3.1zM387.4 115.3l-.3 2.6h36l.3-2.6zM416.8 120.5l2.7 2.7-4.9 40.1h-3zM466 49.8l-.3 2.4h17.5l.2-2.4zM458.3 125.8l-.3 2.6h24.2l.2-2.6zM475.9 131.1l2.8 2.6-2.7 29.6h-3.1zM563.5 131.1h-3l-.6 10.6h-18.2l-1.3 21.6h3.1l1.1-18.9h18.2zM605 57.1h52.5v-2.4h-52.4zM622.5 59.6l2.8 2.5-1.1 55.8h-21l.1-2.6h17.9zM762 49.8h-17.4l.1 2.4h14.5zM780.5 69.5l-.3-5h-11.7l-2.7-53H763l2.8 55.5h11.7l.1 2.5zM802 128.4l-.2-2.6h-24.1l.1 2.6zM784 131.1l-2.8 2.6 1.6 29.6h3.1zM819.9 125.8l.2 2.6h15.1l.2 2.7h3l-.4-5.3h-18.1M888 87.1l-.3-2.6h17.7l.6 5.1h-3l-.2-2.5zM965.3 131.1h54.4l.4 2.6h-54.4zM925.3 149.7h3.1l1.7 13.6h3.1l-2.1-16.3H925zM1032.6 102.4h20.9l5.4 28.7h3.1l-6-31.3h-23.8zM1073.2 11.5h-2.8l2.4 11.8h28.6l3.8 16.8h2.9l-4.3-19.2h-28.6zM1114.7 69.5h-3l6.8 30.3h2.9zM1214.8 115.3h54l.8 2.6h-54.1zM1241.1 11.5l8.5 28.6h2.9l-8.5-28.6zM657.1 147v2.7h6.1V147z" class="MCVB-4"/><path d="m194 192.1-2.5-4.7h3l1.3 2.4h14.8l1.3 2.3zM236.7 163.3h-3.1l7.1 14.6h6l-1.1-2.4h-3.1zM414.6 163.3l3.5 12.2h3l.7 2.4h-6.1l-4.1-14.6zM476 163.3l5.6 26.5h3l.5 2.3h-6l-6.2-28.8zM543.5 163.3l1.7 12.2h3l.3 2.4h-6l-2.1-14.6zM930.1 163.3l-7.8 26.5h-3l-.7 2.3h6l8.6-28.8zM1049.3 192.1l2.1-4.7h-3l-1 2.4h-14.9l-1 2.3zM1211.1 189.8h14.9l1.5-2.4h3l-3 4.7h-17.8zM66.1 187.4l3.2 4.7h17.8l-1.5-2.3H70.7l-1.6-2.4zM782.8 163.3l-1.6 12.2h-3l-.3 2.4h6l2-14.6zM657.1 175.5l.1 2.4h6v-2.4zM710.9 189.8l-.1 2.3h17.8l.2-2.3zM310.3 163.3h-3.1l11.6 28.8h5.9l-.9-2.3h-3zM818.1 189.8l-.4 2.3h17.8l.9-4.7h-3l-.4 2.4z" class="MCVB-5"/><path d="m69.3 192.1 1.6 2.3h17.8l-1.6-2.3zM194 192.1h17.9l1.2 2.3h-17.8zM240.7 177.9l1.1 2.4h6l-1.1-2.4zM415.7 177.9l.7 2.4h6l-.6-2.4zM479.1 192.1l.5 2.3h5.9l-.4-2.3zM542.5 177.9l.3 2.4h6l-.3-2.4zM817.7 192.1h17.8l-.5 2.3h-17.7zM918.6 192.1l-.6 2.3h5.9l.7-2.3zM1049.3 192.1l-1 2.3h-17.8l1-2.3zM1209.7 192.1l-1.5 2.3h17.8l1.5-2.3zM657.2 177.9v2.4h6v-2.4zM783.9 177.9l-.3 2.4h-6l.3-2.4z" class="MCVB-4"/><linearGradient id="SVGIDMCVB_2_" x1="612.285" x2="612.285" y1="192.04" y2="62.26" gradientTransform="matrix(1 0 0 -1 0 223.76)" gradientUnits="userSpaceOnUse"><stop offset="0" style="stop-color:#ede5e2"/><stop offset="1" style="stop-color:#d0c5c0"/></linearGradient><path d="M621.3 112.7h-18v2.6h17.9z" style="fill:url(#SVGIDMCVB_2_)"/><linearGradient id="SVGIDMCVB_3_" x1="324.66" x2="324.66" y1="192.04" y2="62.26" gradientTransform="matrix(1 0 0 -1 0 223.76)" gradientUnits="userSpaceOnUse"><stop offset="0" style="stop-color:#ede5e2"/><stop offset="1" style="stop-color:#d0c5c0"/></linearGradient><path d="M297.5 115.3h53.9l.4-2.6h-53.9z" style="fill:url(#SVGIDMCVB_3_)"/><linearGradient id="SVGIDMCVB_4_" x1="396.565" x2="396.565" y1="192.04" y2="62.26" gradientTransform="matrix(1 0 0 -1 0 223.76)" gradientUnits="userSpaceOnUse"><stop offset="0" style="stop-color:#ede5e2"/><stop offset="1" style="stop-color:#d0c5c0"/></linearGradient><path d="M423.7 112.7h-53.9l-.4 2.6h54z" style="fill:url(#SVGIDMCVB_4_)"/><linearGradient id="SVGIDMCVB_5_" x1="1241.4701" x2="1241.4701" y1="192.04" y2="62.26" gradientTransform="matrix(1 0 0 -1 0 223.76)" gradientUnits="userSpaceOnUse"><stop offset="0" style="stop-color:#ede5e2"/><stop offset="1" style="stop-color:#d0c5c0"/></linearGradient><path d="M1268 112.7h-53.9l.7 2.6h54z" style="fill:url(#SVGIDMCVB_5_)"/><linearGradient id="SVGIDMCVB_6_" x1="40.71" x2="40.71" y1="192.04" y2="62.26" gradientTransform="matrix(1 0 0 -1 0 223.76)" gradientUnits="userSpaceOnUse"><stop offset="0" style="stop-color:#ede5e2"/><stop offset="1" style="stop-color:#d0c5c0"/></linearGradient><path d="M12.7 163.3h55.2l.8-2.7H13.6z" style="fill:url(#SVGIDMCVB_6_)"/><linearGradient id="SVGIDMCVB_7_" x1="59.3" x2="59.3" y1="192.05" y2="62.26" gradientTransform="matrix(1 0 0 -1 0 223.76)" gradientUnits="userSpaceOnUse"><stop offset="0" style="stop-color:#ede5e2"/><stop offset="1" style="stop-color:#d0c5c0"/></linearGradient><path d="M43.7 141.7h30.4l.8-2.7H44.5z" style="fill:url(#SVGIDMCVB_7_)"/><linearGradient id="SVGIDMCVB_8_" x1="63.95" x2="63.95" y1="192.04" y2="62.26" gradientTransform="matrix(1 0 0 -1 0 223.76)" gradientUnits="userSpaceOnUse"><stop offset="0" style="stop-color:#ede5e2"/><stop offset="1" style="stop-color:#d0c5c0"/></linearGradient><path d="M48.5 125.8h30.1l.8-2.6H49.3z" style="fill:url(#SVGIDMCVB_8_)"/><linearGradient id="SVGIDMCVB_9_" x1="113.725" x2="113.725" y1="192.04" y2="62.26" gradientTransform="matrix(1 0 0 -1 0 223.76)" gradientUnits="userSpaceOnUse"><stop offset="0" style="stop-color:#ede5e2"/><stop offset="1" style="stop-color:#d0c5c0"/></linearGradient><path d="M95.3 131.1h36.2l.7-2.7H96z" style="fill:url(#SVGIDMCVB_9_)"/><linearGradient id="SVGIDMCVB_10_" x1="169.495" x2="169.495" y1="192.04" y2="62.26" gradientTransform="matrix(1 0 0 -1 0 223.76)" gradientUnits="userSpaceOnUse"><stop offset="0" style="stop-color:#ede5e2"/><stop offset="1" style="stop-color:#d0c5c0"/></linearGradient><path d="M141.6 163.3h55.2l.6-2.7h-55.1z" style="fill:url(#SVGIDMCVB_10_)"/><linearGradient id="SVGIDMCVB_11_" x1="243.56" x2="243.56" y1="192.04" y2="62.26" gradientTransform="matrix(1 0 0 -1 0 223.76)" gradientUnits="userSpaceOnUse"><stop offset="0" style="stop-color:#ede5e2"/><stop offset="1" style="stop-color:#d0c5c0"/></linearGradient><path d="M246.9 128.4h-6.1l-.5 2.7h6z" style="fill:url(#SVGIDMCVB_11_)"/><linearGradient id="SVGIDMCVB_12_" x1="313.3" x2="313.3" y1="192.04" y2="62.26" gradientTransform="matrix(1 0 0 -1 0 223.76)" gradientUnits="userSpaceOnUse"><stop offset="0" style="stop-color:#ede5e2"/><stop offset="1" style="stop-color:#d0c5c0"/></linearGradient><path d="M316.6 144.4h-6.1l-.5 2.6h6.1z" style="fill:url(#SVGIDMCVB_12_)"/><linearGradient id="SVGIDMCVB_13_" x1="470.48" x2="470.48" y1="191.79" y2="62.37" gradientTransform="matrix(1 0 0 -1 0 223.76)" gradientUnits="userSpaceOnUse"><stop offset="0" style="stop-color:#ede5e2"/><stop offset="1" style="stop-color:#d0c5c0"/></linearGradient><path d="M482.7 123.2h-24.1l-.3 2.6h24.1z" style="fill:url(#SVGIDMCVB_13_)"/><linearGradient id="SVGIDMCVB_14_" x1="550.9" x2="550.9" y1="192.04" y2="62.26" gradientTransform="matrix(1 0 0 -1 0 223.76)" gradientUnits="userSpaceOnUse"><stop offset="0" style="stop-color:#ede5e2"/><stop offset="1" style="stop-color:#d0c5c0"/></linearGradient><path d="M560.1 139h-18.2l-.2 2.7h18.2z" style="fill:url(#SVGIDMCVB_14_)"/><linearGradient id="SVGIDMCVB_15_" x1="789.695" x2="789.695" y1="192.04" y2="62.26" gradientTransform="matrix(1 0 0 -1 0 223.76)" gradientUnits="userSpaceOnUse"><stop offset="0" style="stop-color:#ede5e2"/><stop offset="1" style="stop-color:#d0c5c0"/></linearGradient><path d="M777.7 125.8h24.1l-.2-2.6h-24z" style="fill:url(#SVGIDMCVB_15_)"/><linearGradient id="SVGIDMCVB_16_" x1="828.84" x2="828.84" y1="192.04" y2="62.26" gradientTransform="matrix(1 0 0 -1 0 223.76)" gradientUnits="userSpaceOnUse"><stop offset="0" style="stop-color:#ede5e2"/><stop offset="1" style="stop-color:#d0c5c0"/></linearGradient><path d="M837.8 123.2h-18.1l.2 2.6H838z" style="fill:url(#SVGIDMCVB_16_)"/><linearGradient id="SVGIDMCVB_17_" x1="927.865" x2="927.865" y1="192.04" y2="62.26" gradientTransform="matrix(1 0 0 -1 0 223.76)" gradientUnits="userSpaceOnUse"><stop offset="0" style="stop-color:#ede5e2"/><stop offset="1" style="stop-color:#d0c5c0"/></linearGradient><path d="m924.7 144.4.3 2.6h6.1l-.4-2.6z" style="fill:url(#SVGIDMCVB_17_)"/><linearGradient id="SVGIDMCVB_18_" x1="992.29" x2="992.29" y1="192.04" y2="62.26" gradientTransform="matrix(1 0 0 -1 0 223.76)" gradientUnits="userSpaceOnUse"><stop offset="0" style="stop-color:#ede5e2"/><stop offset="1" style="stop-color:#d0c5c0"/></linearGradient><path d="M1019.2 128.4h-54.3l.4 2.7h54.4z" style="fill:url(#SVGIDMCVB_18_)"/><linearGradient id="SVGIDMCVB_19_" x1="911.52" x2="911.52" y1="192.04" y2="62.26" gradientTransform="matrix(1 0 0 -1 0 223.76)" gradientUnits="userSpaceOnUse"><stop offset="0" style="stop-color:#ede5e2"/><stop offset="1" style="stop-color:#d0c5c0"/></linearGradient><path d="m896 160.6.3 2.7H927l-.3-2.7z" style="fill:url(#SVGIDMCVB_19_)"/><linearGradient id="SVGIDMCVB_20_" x1="942.1851" x2="942.1851" y1="192.04" y2="62.26" gradientTransform="matrix(1 0 0 -1 0 223.76)" gradientUnits="userSpaceOnUse"><stop offset="0" style="stop-color:#ede5e2"/><stop offset="1" style="stop-color:#d0c5c0"/></linearGradient><path d="m932.8 160.6.4 2.7h18.4l-.4-2.7z" style="fill:url(#SVGIDMCVB_20_)"/><linearGradient id="SVGIDMCVB_21_" x1="997.3799" x2="997.3799" y1="192.04" y2="62.26" gradientTransform="matrix(1 0 0 -1 0 223.76)" gradientUnits="userSpaceOnUse"><stop offset="0" style="stop-color:#ede5e2"/><stop offset="1" style="stop-color:#d0c5c0"/></linearGradient><path d="m969.6 160.6.4 2.7h55.2l-.5-2.7z" style="fill:url(#SVGIDMCVB_21_)"/><linearGradient id="SVGIDMCVB_22_" x1="1070.965" x2="1070.965" y1="192.04" y2="62.26" gradientTransform="matrix(1 0 0 -1 0 223.76)" gradientUnits="userSpaceOnUse"><stop offset="0" style="stop-color:#ede5e2"/><stop offset="1" style="stop-color:#d0c5c0"/></linearGradient><path d="m1043.1 160.6.5 2.7h55.2l-.5-2.7z" style="fill:url(#SVGIDMCVB_22_)"/><linearGradient id="SVGIDMCVB_23_" x1="1254.9351" x2="1254.9351" y1="192.04" y2="62.26" gradientTransform="matrix(1 0 0 -1 0 223.76)" gradientUnits="userSpaceOnUse"><stop offset="0" style="stop-color:#ede5e2"/><stop offset="1" style="stop-color:#d0c5c0"/></linearGradient><path d="M1282.1 160.6h-55.2l.8 2.7h55.2z" style="fill:url(#SVGIDMCVB_23_)"/><linearGradient id="SVGIDMCVB_24_" x1="764.345" x2="764.345" y1="192.04" y2="62.26" gradientTransform="matrix(1 0 0 -1 0 223.76)" gradientUnits="userSpaceOnUse"><stop offset="0" style="stop-color:#ede5e2"/><stop offset="1" style="stop-color:#d0c5c0"/></linearGradient><path d="m749 160.6.1 2.7h30.6l-.1-2.7z" style="fill:url(#SVGIDMCVB_24_)"/><linearGradient id="SVGIDMCVB_25_" x1="795.005" x2="795.005" y1="192.05" y2="62.26" gradientTransform="matrix(1 0 0 -1 0 223.76)" gradientUnits="userSpaceOnUse"><stop offset="0" style="stop-color:#ede5e2"/><stop offset="1" style="stop-color:#d0c5c0"/></linearGradient><path d="m785.7 160.6.2 2.7h18.4l-.2-2.7z" style="fill:url(#SVGIDMCVB_25_)"/><linearGradient id="SVGIDMCVB_26_" x1="629.41" x2="629.41" y1="192.04" y2="62.26" gradientTransform="matrix(1 0 0 -1 0 223.76)" gradientUnits="userSpaceOnUse"><stop offset="0" style="stop-color:#ede5e2"/><stop offset="1" style="stop-color:#d0c5c0"/></linearGradient><path d="M601.8 163.3H657v-2.7h-55.1z" style="fill:url(#SVGIDMCVB_26_)"/><linearGradient id="SVGIDMCVB_27_" x1="696.9" x2="696.9" y1="192.04" y2="62.26" gradientTransform="matrix(1 0 0 -1 0 223.76)" gradientUnits="userSpaceOnUse"><stop offset="0" style="stop-color:#ede5e2"/><stop offset="1" style="stop-color:#d0c5c0"/></linearGradient><path d="M663.2 160.6v2.7h67.5l-.1-2.7z" style="fill:url(#SVGIDMCVB_27_)"/><linearGradient id="SVGIDMCVB_28_" x1="850.205" x2="850.205" y1="192.04" y2="62.26" gradientTransform="matrix(1 0 0 -1 0 223.76)" gradientUnits="userSpaceOnUse"><stop offset="0" style="stop-color:#ede5e2"/><stop offset="1" style="stop-color:#d0c5c0"/></linearGradient><path d="m822.5 160.6.2 2.7h55.2l-.3-2.7z" style="fill:url(#SVGIDMCVB_28_)"/><linearGradient id="SVGIDMCVB_29_" x1="463.85" x2="463.85" y1="192.04" y2="62.26" gradientTransform="matrix(1 0 0 -1 0 223.76)" gradientUnits="userSpaceOnUse"><stop offset="0" style="stop-color:#ede5e2"/><stop offset="1" style="stop-color:#d0c5c0"/></linearGradient><path d="M454.5 163.3h18.4l.3-2.7h-18.4z" style="fill:url(#SVGIDMCVB_29_)"/><linearGradient id="SVGIDMCVB_30_" x1="509.825" x2="509.825" y1="192.04" y2="62.26" gradientTransform="matrix(1 0 0 -1 0 223.76)" gradientUnits="userSpaceOnUse"><stop offset="0" style="stop-color:#ede5e2"/><stop offset="1" style="stop-color:#d0c5c0"/></linearGradient><path d="M479.1 163.3h61.3l.2-2.7h-61.3z" style="fill:url(#SVGIDMCVB_30_)"/><linearGradient id="SVGIDMCVB_31_" x1="565.025" x2="565.025" y1="192.04" y2="62.26" gradientTransform="matrix(1 0 0 -1 0 223.76)" gradientUnits="userSpaceOnUse"><stop offset="0" style="stop-color:#ede5e2"/><stop offset="1" style="stop-color:#d0c5c0"/></linearGradient><path d="M546.6 163.3h36.8l.1-2.7h-36.8z" style="fill:url(#SVGIDMCVB_31_)"/><linearGradient id="SVGIDMCVB_32_" x1="396.39" x2="396.39" y1="192.04" y2="62.26" gradientTransform="matrix(1 0 0 -1 0 223.76)" gradientUnits="userSpaceOnUse"><stop offset="0" style="stop-color:#ede5e2"/><stop offset="1" style="stop-color:#d0c5c0"/></linearGradient><path d="M380.9 163.3h30.7l.3-2.7h-30.6z" style="fill:url(#SVGIDMCVB_32_)"/><linearGradient id="SVGIDMCVB_33_" x1="427.055" x2="427.055" y1="192.04" y2="62.26" gradientTransform="matrix(1 0 0 -1 0 223.76)" gradientUnits="userSpaceOnUse"><stop offset="0" style="stop-color:#ede5e2"/><stop offset="1" style="stop-color:#d0c5c0"/></linearGradient><path d="M417.7 163.3h18.4l.3-2.7H418z" style="fill:url(#SVGIDMCVB_33_)"/><linearGradient id="SVGIDMCVB_34_" x1="298.28" x2="298.28" y1="192.04" y2="62.26" gradientTransform="matrix(1 0 0 -1 0 223.76)" gradientUnits="userSpaceOnUse"><stop offset="0" style="stop-color:#ede5e2"/><stop offset="1" style="stop-color:#d0c5c0"/></linearGradient><path d="M288.8 163.3h18.4l.5-2.7h-18.4z" style="fill:url(#SVGIDMCVB_34_)"/><linearGradient id="SVGIDMCVB_35_" x1="328.935" x2="328.935" y1="192.04" y2="62.26" gradientTransform="matrix(1 0 0 -1 0 223.76)" gradientUnits="userSpaceOnUse"><stop offset="0" style="stop-color:#ede5e2"/><stop offset="1" style="stop-color:#d0c5c0"/></linearGradient><path d="M313.4 163.3h30.7l.4-2.7h-30.6z" style="fill:url(#SVGIDMCVB_35_)"/><linearGradient id="SVGIDMCVB_36_" x1="224.69" x2="224.69" y1="192.04" y2="62.26" gradientTransform="matrix(1 0 0 -1 0 223.76)" gradientUnits="userSpaceOnUse"><stop offset="0" style="stop-color:#ede5e2"/><stop offset="1" style="stop-color:#d0c5c0"/></linearGradient><path d="M215.2 163.3h18.4l.6-2.7h-18.4z" style="fill:url(#SVGIDMCVB_36_)"/><linearGradient id="SVGIDMCVB_37_" x1="255.35" x2="255.35" y1="192.04" y2="62.26" gradientTransform="matrix(1 0 0 -1 0 223.76)" gradientUnits="userSpaceOnUse"><stop offset="0" style="stop-color:#ede5e2"/><stop offset="1" style="stop-color:#d0c5c0"/></linearGradient><path d="M239.8 163.3h30.6l.6-2.7h-30.7z" style="fill:url(#SVGIDMCVB_37_)"/><linearGradient id="SVGIDMCVB_38_" x1="896.41" x2="896.41" y1="191.79" y2="62.66" gradientTransform="matrix(1 0 0 -1 0 223.76)" gradientUnits="userSpaceOnUse"><stop offset="0" style="stop-color:#ede5e2"/><stop offset="1" style="stop-color:#d0c5c0"/></linearGradient><path d="M905.1 82h-17.7l.3 2.5h17.7z" style="fill:url(#SVGIDMCVB_38_)"/><linearGradient id="SVGIDMCVB_39_" x1="365.205" x2="365.205" y1="192.04" y2="62.26" gradientTransform="matrix(1 0 0 -1 0 223.76)" gradientUnits="userSpaceOnUse"><stop offset="0" style="stop-color:#ede5e2"/><stop offset="1" style="stop-color:#d0c5c0"/></linearGradient><path d="M374.2 82h-17.7l-.3 2.5h17.7z" style="fill:url(#SVGIDMCVB_39_)"/><linearGradient id="SVGIDMCVB_40_" x1="78.87" x2="78.87" y1="192.04" y2="62.26" gradientTransform="matrix(1 0 0 -1 0 223.76)" gradientUnits="userSpaceOnUse"><stop offset="0" style="stop-color:#ede5e2"/><stop offset="1" style="stop-color:#d0c5c0"/></linearGradient><path d="M105.1 32.9H53.4l-.8 2.3h51.9z" style="fill:url(#SVGIDMCVB_40_)"/><linearGradient id="SVGIDMCVB_41_" x1="185.41" x2="185.41" y1="192.04" y2="62.26" gradientTransform="matrix(1 0 0 -1 0 223.76)" gradientUnits="userSpaceOnUse"><stop offset="0" style="stop-color:#ede5e2"/><stop offset="1" style="stop-color:#d0c5c0"/></linearGradient><path d="M197.2 32.9h-23l-.6 2.3h23z" style="fill:url(#SVGIDMCVB_41_)"/><linearGradient id="SVGIDMCVB_42_" x1="204.565" x2="204.565" y1="192.04" y2="62.26" gradientTransform="matrix(1 0 0 -1 0 223.76)" gradientUnits="userSpaceOnUse"><stop offset="0" style="stop-color:#ede5e2"/><stop offset="1" style="stop-color:#d0c5c0"/></linearGradient><path d="M189.7 64.5h29.2l.6-2.4h-29.3z" style="fill:url(#SVGIDMCVB_42_)"/><linearGradient id="SVGIDMCVB_43_" x1="166.575" x2="166.575" y1="192.04" y2="62.26" gradientTransform="matrix(1 0 0 -1 0 223.76)" gradientUnits="userSpaceOnUse"><stop offset="0" style="stop-color:#ede5e2"/><stop offset="1" style="stop-color:#d0c5c0"/></linearGradient><path d="M184.4 62.1h-35l-.7 2.4h35.1z" style="fill:url(#SVGIDMCVB_43_)"/><linearGradient id="SVGIDMCVB_44_" x1="283.3" x2="283.3" y1="192.04" y2="62.26" gradientTransform="matrix(1 0 0 -1 0 223.76)" gradientUnits="userSpaceOnUse"><stop offset="0" style="stop-color:#ede5e2"/><stop offset="1" style="stop-color:#d0c5c0"/></linearGradient><path d="M295 32.9h-23l-.5 2.3h23.1z" style="fill:url(#SVGIDMCVB_44_)"/><linearGradient id="SVGIDMCVB_45_" x1="355.275" x2="355.275" y1="192.04" y2="62.26" gradientTransform="matrix(1 0 0 -1 0 223.76)" gradientUnits="userSpaceOnUse"><stop offset="0" style="stop-color:#ede5e2"/><stop offset="1" style="stop-color:#d0c5c0"/></linearGradient><path d="M364.1 32.9h-17.3l-.3 2.3h17.2z" style="fill:url(#SVGIDMCVB_45_)"/><linearGradient id="SVGIDMCVB_46_" x1="424.36" x2="424.36" y1="192.04" y2="62.26" gradientTransform="matrix(1 0 0 -1 0 223.76)" gradientUnits="userSpaceOnUse"><stop offset="0" style="stop-color:#ede5e2"/><stop offset="1" style="stop-color:#d0c5c0"/></linearGradient><path d="M398.3 35.2h51.9l.2-2.3h-51.8z" style="fill:url(#SVGIDMCVB_46_)"/><linearGradient id="SVGIDMCVB_47_" x1="474.795" x2="474.795" y1="192.04" y2="62.26" gradientTransform="matrix(1 0 0 -1 0 223.76)" gradientUnits="userSpaceOnUse"><stop offset="0" style="stop-color:#ede5e2"/><stop offset="1" style="stop-color:#d0c5c0"/></linearGradient><path d="M483.6 47.4h-17.4l-.2 2.4h17.4z" style="fill:url(#SVGIDMCVB_47_)"/><linearGradient id="SVGIDMCVB_48_" x1="631.315" x2="631.315" y1="192.04" y2="62.26" gradientTransform="matrix(1 0 0 -1 0 223.76)" gradientUnits="userSpaceOnUse"><stop offset="0" style="stop-color:#ede5e2"/><stop offset="1" style="stop-color:#d0c5c0"/></linearGradient><path d="M657.5 52.2h-52.3l-.1 2.5h52.4z" style="fill:url(#SVGIDMCVB_48_)"/><linearGradient id="SVGIDMCVB_49_" x1="753.235" x2="753.235" y1="192.04" y2="62.26" gradientTransform="matrix(1 0 0 -1 0 223.76)" gradientUnits="userSpaceOnUse"><stop offset="0" style="stop-color:#ede5e2"/><stop offset="1" style="stop-color:#d0c5c0"/></linearGradient><path d="M761.9 47.4h-17.4l.1 2.4H762z" style="fill:url(#SVGIDMCVB_49_)"/><linearGradient id="SVGIDMCVB_50_" x1="804.76" x2="804.76" y1="192.04" y2="62.26" gradientTransform="matrix(1 0 0 -1 0 223.76)" gradientUnits="userSpaceOnUse"><stop offset="0" style="stop-color:#ede5e2"/><stop offset="1" style="stop-color:#d0c5c0"/></linearGradient><path d="m813.5 40.1-.2-2.4H796l.2 2.4z" style="fill:url(#SVGIDMCVB_50_)"/><linearGradient id="SVGIDMCVB_51_" x1="1177.0699" x2="1177.0699" y1="192.04" y2="62.26" gradientTransform="matrix(1 0 0 -1 0 223.76)" gradientUnits="userSpaceOnUse"><stop offset="0" style="stop-color:#ede5e2"/><stop offset="1" style="stop-color:#d0c5c0"/></linearGradient><path d="m1159.4 37.7.7 2.4h34.6l-.6-2.4z" style="fill:url(#SVGIDMCVB_51_)"/><linearGradient id="SVGIDMCVB_52_" x1="1266.54" x2="1266.54" y1="192.04" y2="62.26" gradientTransform="matrix(1 0 0 -1 0 223.76)" gradientUnits="userSpaceOnUse"><stop offset="0" style="stop-color:#ede5e2"/><stop offset="1" style="stop-color:#d0c5c0"/></linearGradient><path d="m1281.3 40.1-.7-2.4h-28.9l.8 2.4z" style="fill:url(#SVGIDMCVB_52_)"/><linearGradient id="SVGIDMCVB_53_" x1="1089.235" x2="1089.235" y1="192.09" y2="62.9" gradientTransform="matrix(1 0 0 -1 0 223.76)" gradientUnits="userSpaceOnUse"><stop offset="0" style="stop-color:#ede5e2"/><stop offset="1" style="stop-color:#d0c5c0"/></linearGradient><path d="m1103.8 20.9-.6-2.3h-28.5l.5 2.3z" style="fill:url(#SVGIDMCVB_53_)"/><linearGradient id="SVGIDMCVB_54_" x1="1087.6001" x2="1087.6001" y1="192.04" y2="62.27" gradientTransform="matrix(1 0 0 -1 0 223.76)" gradientUnits="userSpaceOnUse"><stop offset="0" style="stop-color:#ede5e2"/><stop offset="1" style="stop-color:#d0c5c0"/></linearGradient><path d="m1102.3 40.1-.5-2.4h-28.9l.5 2.4z" style="fill:url(#SVGIDMCVB_54_)"/><linearGradient id="SVGIDMCVB_55_" x1="1125.125" x2="1125.125" y1="192.04" y2="62.26" gradientTransform="matrix(1 0 0 -1 0 223.76)" gradientUnits="userSpaceOnUse"><stop offset="0" style="stop-color:#ede5e2"/><stop offset="1" style="stop-color:#d0c5c0"/></linearGradient><path d="m1142.7 40.1-.6-2.4h-34.6l.6 2.4z" style="fill:url(#SVGIDMCVB_55_)"/><linearGradient id="SVGIDMCVB_56_" x1="774.33" x2="774.33" y1="191.91" y2="62.7" gradientTransform="matrix(1 0 0 -1 0 223.76)" gradientUnits="userSpaceOnUse"><stop offset="0" style="stop-color:#ede5e2"/><stop offset="1" style="stop-color:#d0c5c0"/></linearGradient><path d="m780.2 64.5-.1-2.4h-11.7l.1 2.4z" style="fill:url(#SVGIDMCVB_56_)"/><linearGradient id="SVGIDMCVB_57_" x1="923.09" x2="923.09" y1="192.04" y2="62.27" gradientTransform="matrix(1 0 0 -1 0 223.76)" gradientUnits="userSpaceOnUse"><stop offset="0" style="stop-color:#ede5e2"/><stop offset="1" style="stop-color:#d0c5c0"/></linearGradient><path d="m934.8 40.1-.3-2.4h-23.1l.3 2.4z" style="fill:url(#SVGIDMCVB_57_)"/><linearGradient id="SVGIDMCVB_58_" x1="945.685" x2="945.685" y1="192.04" y2="62.27" gradientTransform="matrix(1 0 0 -1 0 223.76)" gradientUnits="userSpaceOnUse"><stop offset="0" style="stop-color:#ede5e2"/><stop offset="1" style="stop-color:#d0c5c0"/></linearGradient><path d="m954.6 57.1-.4-2.4h-17.4l.3 2.4z" style="fill:url(#SVGIDMCVB_58_)"/><linearGradient id="SVGIDMCVB_59_" x1="963.495" x2="963.495" y1="192.04" y2="62.27" gradientTransform="matrix(1 0 0 -1 0 223.76)" gradientUnits="userSpaceOnUse"><stop offset="0" style="stop-color:#ede5e2"/><stop offset="1" style="stop-color:#d0c5c0"/></linearGradient><path d="m975.2 40.1-.4-2.4h-23l.3 2.4z" style="fill:url(#SVGIDMCVB_59_)"/><linearGradient id="SVGIDMCVB_60_" x1="963.16" x2="963.16" y1="192.04" y2="62.26" gradientTransform="matrix(1 0 0 -1 0 223.76)" gradientUnits="userSpaceOnUse"><stop offset="0" style="stop-color:#ede5e2"/><stop offset="1" style="stop-color:#d0c5c0"/></linearGradient><path d="M958.9 67h8.8l-.3-2.5h-8.8z" style="fill:url(#SVGIDMCVB_60_)"/><linearGradient id="SVGIDMCVB_61_" x1="930.975" x2="930.975" y1="192.04" y2="62.26" gradientTransform="matrix(1 0 0 -1 0 223.76)" gradientUnits="userSpaceOnUse"><stop offset="0" style="stop-color:#ede5e2"/><stop offset="1" style="stop-color:#d0c5c0"/></linearGradient><path d="M926.8 67h8.7l-.3-2.5h-8.8z" style="fill:url(#SVGIDMCVB_61_)"/><linearGradient id="SVGIDMCVB_62_" x1="553.64" x2="553.64" y1="192.04" y2="62.26" gradientTransform="matrix(1 0 0 -1 0 223.76)" gradientUnits="userSpaceOnUse"><stop offset="0" style="stop-color:#ede5e2"/><stop offset="1" style="stop-color:#d0c5c0"/></linearGradient><path d="M518.9 40.1h69.3l.1-2.4h-69.2z" style="fill:url(#SVGIDMCVB_62_)"/><linearGradient id="SVGIDMCVB_63_" x1="692.215" x2="692.215" y1="192.04" y2="62.26" gradientTransform="matrix(1 0 0 -1 0 223.76)" gradientUnits="userSpaceOnUse"><stop offset="0" style="stop-color:#ede5e2"/><stop offset="1" style="stop-color:#d0c5c0"/></linearGradient><path d="M726.8 37.7h-69.2v2.4h69.3z" style="fill:url(#SVGIDMCVB_63_)"/><linearGradient id="SVGIDMCVB_64_" x1="859.545" x2="859.545" y1="192.04" y2="62.26" gradientTransform="matrix(1 0 0 -1 0 223.76)" gradientUnits="userSpaceOnUse"><stop offset="0" style="stop-color:#ede5e2"/><stop offset="1" style="stop-color:#d0c5c0"/></linearGradient><path d="m868.5 69.5-.3-2.5h-17.6l.3 2.5z" style="fill:url(#SVGIDMCVB_64_)"/><linearGradient id="SVGIDMCVB_65_" x1="44.775" x2="44.775" y1="192.04" y2="62.26" gradientTransform="matrix(1 0 0 -1 0 223.76)" gradientUnits="userSpaceOnUse"><stop offset="0" style="stop-color:#ede5e2"/><stop offset="1" style="stop-color:#d0c5c0"/></linearGradient><path d="M57.1 97.2H33.3l-.8 2.6h23.8z" style="fill:url(#SVGIDMCVB_65_)"/><linearGradient id="SVGIDMCVB_66_" x1="95.33" x2="95.33" y1="192.04" y2="62.26" gradientTransform="matrix(1 0 0 -1 0 223.76)" gradientUnits="userSpaceOnUse"><stop offset="0" style="stop-color:#ede5e2"/><stop offset="1" style="stop-color:#d0c5c0"/></linearGradient><path d="M104.6 97.2H86.8l-.7 2.6h17.8z" style="fill:url(#SVGIDMCVB_66_)"/><linearGradient id="SVGIDMCVB_67_" x1="148.845" x2="148.845" y1="192.04" y2="62.26" gradientTransform="matrix(1 0 0 -1 0 223.76)" gradientUnits="userSpaceOnUse"><stop offset="0" style="stop-color:#ede5e2"/><stop offset="1" style="stop-color:#d0c5c0"/></linearGradient><path d="M158.1 97.2h-17.8l-.7 2.6h17.9z" style="fill:url(#SVGIDMCVB_67_)"/><linearGradient id="SVGIDMCVB_68_" x1="1100.34" x2="1100.34" y1="192.04" y2="62.26" gradientTransform="matrix(1 0 0 -1 0 223.76)" gradientUnits="userSpaceOnUse"><stop offset="0" style="stop-color:#ede5e2"/><stop offset="1" style="stop-color:#d0c5c0"/></linearGradient><path d="m1085.2 97.2.5 2.6h29.8l-.6-2.6z" style="fill:url(#SVGIDMCVB_68_)"/><linearGradient id="SVGIDMCVB_69_" x1="1139" x2="1139" y1="192.04" y2="62.26" gradientTransform="matrix(1 0 0 -1 0 223.76)" gradientUnits="userSpaceOnUse"><stop offset="0" style="stop-color:#ede5e2"/><stop offset="1" style="stop-color:#d0c5c0"/></linearGradient><path d="m1120.9 97.2.5 2.6h35.7l-.6-2.6z" style="fill:url(#SVGIDMCVB_69_)"/><linearGradient id="SVGIDMCVB_70_" x1="1043.845" x2="1043.845" y1="192.04" y2="62.26" gradientTransform="matrix(1 0 0 -1 0 223.76)" gradientUnits="userSpaceOnUse"><stop offset="0" style="stop-color:#ede5e2"/><stop offset="1" style="stop-color:#d0c5c0"/></linearGradient><path d="M1055.5 97.2h-23.8l.5 2.6h23.8z" style="fill:url(#SVGIDMCVB_70_)"/><linearGradient id="SVGIDMCVB_71_" x1="550.235" x2="550.235" y1="192.04" y2="62.26" gradientTransform="matrix(1 0 0 -1 0 223.76)" gradientUnits="userSpaceOnUse"><stop offset="0" style="stop-color:#ede5e2"/><stop offset="1" style="stop-color:#d0c5c0"/></linearGradient><path d="M514.5 99.8h71.4l.1-2.6h-71.3z" style="fill:url(#SVGIDMCVB_71_)"/><linearGradient id="SVGIDMCVB_72_" x1="660.135" x2="660.135" y1="192.04" y2="62.26" gradientTransform="matrix(1 0 0 -1 0 223.76)" gradientUnits="userSpaceOnUse"><stop offset="0" style="stop-color:#ede5e2"/><stop offset="1" style="stop-color:#d0c5c0"/></linearGradient><path d="M663.2 144.4h-6.1v2.6h6.1z" style="fill:url(#SVGIDMCVB_72_)"/><linearGradient id="SVGIDMCVB_73_" x1="808.95" x2="808.95" y1="192.04" y2="62.26" gradientTransform="matrix(1 0 0 -1 0 223.76)" gradientUnits="userSpaceOnUse"><stop offset="0" style="stop-color:#ede5e2"/><stop offset="1" style="stop-color:#d0c5c0"/></linearGradient><path d="m799.9 97.2.2 2.6H818l-.2-2.6z" style="fill:url(#SVGIDMCVB_73_)"/><linearGradient id="SVGIDMCVB_74_" x1="953.845" x2="953.845" y1="192.04" y2="62.26" gradientTransform="matrix(1 0 0 -1 0 223.76)" gradientUnits="userSpaceOnUse"><stop offset="0" style="stop-color:#ede5e2"/><stop offset="1" style="stop-color:#d0c5c0"/></linearGradient><path d="m944.7 112.7.3 2.6h18l-.4-2.6z" style="fill:url(#SVGIDMCVB_74_)"/><path d="m710.8 192.1-.1 2.3h17.7l.2-2.3zM318.8 192.1l.9 2.3h5.9l-.9-2.3z" class="MCVB-4"/><path d="m87.1 192.1 1.6 2.3 3.4-12.8-1.5-2.3zM1209.7 192.1l-1.5 2.3-3.4-13.7 1.4-2.3z" class="MCVB-0"/></svg>