<svg xmlns="http://www.w3.org/2000/svg" viewBox="0 0 1000 1000"><defs><linearGradient id="a" x2="1000" y1="500" y2="500" gradientUnits="userSpaceOnUse"><stop offset="0" stop-color="#00a495"/><stop offset="1" stop-color="#13ad65"/></linearGradient></defs><path fill="url(#a)" d="M0 500a500 500 0 1 0 1000 0A500 500 0 1 0 0 500"/><path fill="#fff" d="M753.622 723.679H246.393c-20.097 0-36.394-16.298-36.394-36.395 0-20.091 16.297-36.395 36.394-36.395h507.23c20.09 0 36.376 16.304 36.376 36.395s-16.286 36.395-36.377 36.395zm-320.55-170.708H246.393c-20.097 0-36.394-16.303-36.394-36.394V312.712c0-20.09 16.297-36.394 36.394-36.394h186.679c20.09 0 36.394 16.303 36.394 36.394v203.865c0 20.09-16.303 36.394-36.394 36.394zm-150.284-72.795H396.67V349.113H282.788zm470.834-120.015H569.354c-20.097 0-36.4-16.303-36.4-36.4s16.303-36.395 36.4-36.395h184.268c20.091 0 36.377 16.298 36.377 36.395s-16.286 36.4-36.377 36.4zm0 181.756H569.354c-20.097 0-36.4-16.292-36.4-36.389s16.303-36.394 36.4-36.394h184.268c20.091 0 36.377 16.297 36.377 36.394s-16.286 36.389-36.377 36.389z"/></svg>